<?xml version="1.0" ?><svg style="enable-background:new 0 0 512 512;" version="1.1" viewBox="0 0 512 512" xml:space="preserve" xmlns="http://www.w3.org/2000/svg" xmlns:xlink="http://www.w3.org/1999/xlink"><style type="text/css">
	.st0{fill:#1E1E1E;}
	.st1{fill:#464646;stroke:#21759B;stroke-width:2;stroke-miterlimit:10;}
	.st2{fill:#FFFFFF;}
</style><g id="Edges"/><g id="Background_Bottom"><g><path class="st0" d="M492.3,443.1c0,34.2-27.7,61.9-61.9,61.9H80.7c-34.2,0-61.9-27.7-61.9-61.9V93.4c0-34.2,27.7-61.9,61.9-61.9    h349.7c34.2,0,61.9,27.7,61.9,61.9V443.1z"/></g></g><g id="Background"><path class="st1" d="M492.3,418.4c0,34.2-27.7,61.9-61.9,61.9H80.7c-34.2,0-61.9-27.7-61.9-61.9V68.6c0-34.2,27.7-61.9,61.9-61.9   h349.7c34.2,0,61.9,27.7,61.9,61.9V418.4z"/></g><g id="Symbol"><g><path class="st2" d="M162.9,156.7c-11.3,9.5-23,21.2-27.8,35.4c-5.5,16.8,2.2,34,9.5,48.9c7.3,15.3,15.3,30.3,22.3,46    c5.5,12.4,13.1,27,11.3,40.9c-1.5,9.9-4.8,19.4-6.6,29.2c-1.5,6.6,4.8,0,6.9-1.8c12.8-11,26.7-23.4,31.8-40.2    c2.5-8.4,1.1-16.1-1.8-24.1c-2.9-7.7-6.2-15-9.5-22.6c-6.9-15.3-14.2-30.7-21.6-46c-2.9-5.5-5.8-11.3-8.4-17.2    c-2.5-6.2-4-12.8-4.4-19.7c-0.4-5.5-0.4-10.6,0.4-16.1c0.4-4,1.5-7.7,1.8-11.7C167.3,155.6,165.5,154.9,162.9,156.7L162.9,156.7z     M330.2,156.7c-11.3,9.5-23,21.2-27.8,35.4c-5.5,16.8,2.2,34,9.5,48.9c7.3,15.3,15.3,30.3,22.3,46c5.5,12.4,13.1,27,11.3,40.9    c-1.5,9.9-4.8,19.4-6.6,29.2c-1.5,6.6,4.8,0,6.9-1.8c12.8-11,26.7-23.4,31.8-40.2c2.5-8.4,1.1-16.1-1.8-24.1    c-2.9-7.7-6.2-15-9.5-22.6c-6.9-15.3-14.2-30.7-21.6-46c-2.9-5.5-5.8-11.3-8.4-17.2c-2.5-6.2-4-12.8-4.4-19.7    c-0.4-5.5-0.4-10.6,0.4-16.1c0.4-4,1.5-7.7,1.8-11.7C334.6,155.6,332.7,154.9,330.2,156.7L330.2,156.7z"/><path class="st2" d="M244,128.9c-12.8,10.6-26.7,23.4-34.3,38.3c-5.5,10.6-6.2,21.6-3.3,32.5c3.7,13.1,8.8,26.3,14.2,39.1    c10.6,24.5,24.5,47.5,34.7,72.3c3.7,8.8,7.7,18.6,8.4,28.5c0.7,12.1-3.3,24.8-6.6,36.2c-0.7,3.3-2.9,7.7-2.5,11    c0.4,2.5,1.8,1.5,3.3,0.4c6.2-4.8,12.4-10.2,17.9-15.7c15-14.2,32.1-33.2,30.7-55.5c-0.7-9.1-5.1-17.9-8.8-26.3    c-4-9.8-8.4-19.3-12.8-28.8c-8-17.9-16.4-35.4-25.2-53c-2.9-6.2-6.6-12.1-8.8-18.3c-3.3-8.4-4.8-17.2-5.1-25.9    c-0.4-6.6,0-13.5,0.7-20.1c0.4-4.4,1.8-8.4,1.8-12.8C249.5,126.8,247.3,126.4,244,128.9L244,128.9z"/></g></g></svg>